#!OML:ASF E:\Steps\Project 1\Capture day 1\Session 2\Subject.ASF
:FULLY-SPECIFIED
:DEGREES
499
root 3.11831 18.7723 15.938 -152.944 -4.47294 177.196
lowerback -29.8674 -2.72884 -7.53432
upperback -1.1628 -1.61761 -0.404903
thorax 14.564 -1.47839 2.93309
lowerneck -2.40464 -4.36062 -1.75112
upperneck 0.351089 -5.97414 6.72043
head 0.796359 -2.98575 2.31844
rclavicle -2.83268e-015 -8.34896e-015
rhumerus -35.1204 -16.566 -79.4069
rradius 36.0029
rwrist -2.41157
rhand -8.79368 -53.1057
rfingers 7.12502
rthumb 17.145 -82.3693
lclavicle -2.83268e-015 -8.34896e-015
lhumerus -27.2795 1.90303 83.1695
lradius 27.6894
lwrist -0.596411
lhand -22.0692 -13.1607
lfingers 7.12502
lthumb 4.34195 16.7748
rfemur -22.7592 6.42575 17.2295
rtibia 8.35461
rfoot -19.8912 -0.908098
rtoes -22.8854
lfemur -21.0765 -5.36009 -26.2614
ltibia 6.59102
lfoot -6.0132 -3.80019
ltoes 3.68655
500
root 3.12956 18.7726 15.9416 -153.126 -4.57865 177.398
lowerback -29.7439 -2.71205 -7.44818
upperback -1.14049 -1.63153 -0.347146
thorax 14.5379 -1.47589 2.94906
lowerneck -2.47813 -4.44416 -1.63125
upperneck 0.586612 -6.09868 6.62824
head 0.881192 -3.04194 2.26021
rclavicle 1.00883e-014 3.61788e-014
rhumerus -35.1633 -16.5453 -79.445
rradius 35.9653
rwrist -2.4544
rhand -8.82024 -52.9759
rfingers 7.12502
rthumb 17.1195 -82.2417
lclavicle 1.00883e-014 3.61788e-014
lhumerus -27.3114 1.93824 83.1148
lradius 27.8046
lwrist -0.161002
lhand -21.5644 -12.8346
lfingers 7.12502
lthumb 4.82936 17.0904
rfemur -22.5244 6.81294 17.4693
rtibia 8.18346
rfoot -19.7831 -1.28989
rtoes -23.2415
lfemur -21.0426 -5.08902 -25.9695
ltibia 6.82394
lfoot -6.05223 -4.08166
ltoes 3.88929
501
root 3.13734 18.7732 15.9455 -153.292 -4.64174 177.428
lowerback -29.4411 -2.67615 -7.41839
upperback -1.24402 -1.62489 -0.402295
thorax 14.2763 -1.46309 2.88558
lowerneck -2.49776 -4.4528 -1.56487
upperneck 0.835874 -6.12697 6.62018
head 0.961982 -3.05134 2.24238
rclavicle 5.56597e-015 -2.3059e-014
rhumerus -35.4326 -16.5289 -79.4628
rradius 35.8833
rwrist -2.43518
rhand -8.69152 -52.4939
rfingers 7.12502
rthumb 17.2434 -81.7489
lclavicle 5.56597e-015 -2.3059e-014
lhumerus -27.5067 2.02015 82.9874
lradius 27.57
lwrist -0.436866
lhand -21.9469 -13.4264
lfingers 7.12502
lthumb 4.46002 16.5067
rfemur -22.2477 7.12422 17.4809
rtibia 7.93723
rfoot -19.6737 -1.54058
rtoes -22.5289
lfemur -20.9426 -5.01574 -25.879
ltibia 6.92151
lfoot -6.1004 -4.17134
ltoes 3.70302
502
root 3.13703 18.7755 15.9566 -153.386 -4.79298 177.343
lowerback -29.475 -2.7709 -7.6245
upperback -1.08683 -1.65834 -0.292221
thorax 14.4864 -1.49299 3.10241
lowerneck -2.53365 -4.50325 -1.73423
upperneck 0.457691 -6.17576 6.79025
head 0.863634 -3.0828 2.32979
rclavicle -8.44835e-016 3.97569e-016
rhumerus -35.1399 -16.5172 -79.3298
rradius 35.7322
rwrist -2.54203
rhand -8.67815 -52.3335
rfingers 7.12502
rthumb 17.2562 -81.5874
lclavicle -8.44835e-016 3.97569e-016
lhumerus -27.1607 2.46535 83.1307
lradius 27.2584
lwrist -0.829417
lhand -22.0274 -13.4196
lfingers 7.12502
lthumb 4.38234 16.5151
rfemur -22.0461 6.98073 17.4476
rtibia 7.71561
rfoot -19.5027 -1.55827
rtoes -22.3198
lfemur -20.9058 -5.12031 -25.9505
ltibia 6.98142
lfoot -6.1607 -4.21534
ltoes 3.97631
503
root 3.15536 18.7753 15.9572 -153.467 -4.7666 177.342
lowerback -29.1914 -2.75477 -7.71476
upperback -1.26104 -1.64954 -0.385867
thorax 14.1491 -1.48769 3.06114
lowerneck -2.3706 -4.54251 -1.7007
upperneck 0.402673 -6.25322 7.18114
head 0.836141 -3.13011 2.45498
rclavicle -1.17283e-014 2.06736e-014
rhumerus -35.5088 -16.6164 -79.4293
rradius 35.6639
rwrist -2.44964
rhand -8.50012 -52.3045
rfingers 7.12502
rthumb 17.4276 -81.5433
lclavicle -1.17283e-014 2.06736e-014
lhumerus -27.4697 2.48911 82.8688
lradius 27.2124
lwrist -0.81717
lhand -21.8744 -13.1597
lfingers 7.12502
lthumb 4.53003 16.7719
rfemur -21.9214 7.48704 17.3886
rtibia 7.56263
rfoot -19.4262 -2.05884
rtoes -22.5866
lfemur -20.8883 -5.08985 -25.8346
ltibia 7.00053
lfoot -6.21941 -4.30221
ltoes 5.54819
504
root 3.15071 18.7752 15.9671 -153.466 -4.86493 177.23
lowerback -29.3777 -2.83438 -7.89739
upperback -1.14813 -1.66868 -0.302628
thorax 14.3734 -1.51383 3.23625
lowerneck -2.25679 -4.58074 -1.84018
upperneck 0.184934 -6.28772 7.24465
head 0.756924 -3.15317 2.50523
rclavicle -2.48481e-015 2.66371e-014
rhumerus -35.3707 -16.6894 -79.2361
rradius 35.5187
rwrist -2.23115
rhand -8.13216 -52.2308
rfingers 7.12502
rthumb 17.7817 -81.4378
lclavicle -2.48481e-015 2.66371e-014
lhumerus -27.3487 2.76561 82.9904
lradius 26.9651
lwrist -1.09526
lhand -22.049 -13.8991
lfingers 7.12502
lthumb 4.36142 16.036
rfemur -21.8404 6.91757 17.3812
rtibia 7.47634
rfoot -19.51 -1.68535
rtoes -23.2126
lfemur -20.9021 -5.28282 -25.9847
ltibia 7.02206
lfoot -6.1744 -4.60791
ltoes 7.9763
505
root 3.14603 18.7743 15.9789 -153.396 -4.9027 177.177
lowerback -29.3745 -2.80653 -7.82193
upperback -1.22 -1.66443 -0.370486
thorax 14.2834 -1.50595 3.12319
lowerneck -2.36389 -4.57224 -1.74364
upperneck 0.467718 -6.28388 7.03718
head 0.852801 -3.14185 2.41406
rclavicle -3.926e-015 7.55382e-015
rhumerus -35.5211 -16.6903 -79.2562
rradius 35.4993
rwrist -2.10668
rhand -8.06016 -52.5187
rfingers 7.12502
rthumb 17.8509 -81.7194
lclavicle -3.926e-015 7.55382e-015
lhumerus -27.5542 2.61423 82.9513
lradius 27.0378
lwrist -0.858294
lhand -22.068 -13.1703
lfingers 7.12502
lthumb 4.34311 16.7651
rfemur -21.9404 6.34146 17.4115
rtibia 7.46419
rfoot -19.4941 -1.20757
rtoes -23.4672
lfemur -20.9692 -5.64286 -26.0361
ltibia 6.98394
lfoot -6.24946 -4.53723
ltoes 8.6349
506
root 3.15535 18.7719 15.9855 -153.392 -4.88813 177.256
lowerback -29.5045 -2.83308 -7.87597
upperback -1.13347 -1.66336 -0.304449
thorax 14.4472 -1.51318 3.22056
lowerneck -2.86477 -4.49297 -1.9025
upperneck 0.781943 -6.18738 7.04384
head 1.04087 -3.07758 2.43241
rclavicle 8.94531e-016 -1.51076e-014
rhumerus -35.3866 -16.5531 -79.3301
rradius 35.4639
rwrist -2.16171
rhand -7.90266 -52.7166
rfingers 7.12502
rthumb 18.0025 -81.9035
lclavicle 8.94531e-016 -1.51076e-014
lhumerus -27.3628 2.85707 82.8927
lradius 26.7768
lwrist -0.858685
lhand -22.0147 -13.2399
lfingers 7.12502
lthumb 4.39457 16.6945
rfemur -22.0518 6.70541 17.4489
rtibia 7.54538
rfoot -19.5016 -1.48195
rtoes -23.308
lfemur -21.0086 -5.84115 -25.847
ltibia 6.93809
lfoot -6.39347 -4.31798
ltoes 7.76794
507
root 3.15636 18.7723 15.9949 -153.421 -4.91602 177.135
lowerback -29.3664 -2.76727 -8.01002
upperback -1.2675 -1.55467 -0.434467
thorax 14.2104 -1.46812 3.19772
lowerneck -2.70531 -4.42989 -1.82568
upperneck 0.786299 -6.11238 7.10719
head 1.01066 -3.04405 2.445
rclavicle 8.39865e-015 -9.54166e-015
rhumerus -35.8167 -16.7609 -79.2616
rradius 35.3975
rwrist -2.22632
rhand -7.60987 -52.283
rfingers 7.12502
rthumb 18.2842 -81.4437
lclavicle 8.39865e-015 -9.54166e-015
lhumerus -27.5258 2.72148 82.773
lradius 26.53
lwrist -0.835766
lhand -21.923 -13.1729
lfingers 7.12502
lthumb 4.48308 16.7597
rfemur -22.0299 6.80296 17.31
rtibia 7.59629
rfoot -19.6008 -1.69836
rtoes -23.4609
lfemur -21.0413 -5.75544 -26.018
ltibia 7.03007
lfoot -6.36528 -4.52361
ltoes 7.69396
508
root 3.15865 18.7697 16.0052 -153.455 -4.8883 177.229
lowerback -29.4333 -2.69706 -7.91295
upperback -1.23266 -1.48099 -0.451071
thorax 14.2719 -1.42973 3.15486
lowerneck -2.75499 -4.43819 -1.87334
upperneck 0.709392 -6.12285 7.19961
head 1.00084 -3.05053 2.48337
rclavicle -7.70291e-015 -1.35174e-014
rhumerus -35.8606 -16.9584 -79.2157
rradius 35.2404
rwrist -2.21462
rhand -7.56654 -51.6699
rfingers 7.12502
rthumb 18.3259 -80.8267
lclavicle -7.70291e-015 -1.35174e-014
lhumerus -27.4057 2.8356 82.6914
lradius 26.236
lwrist -0.943075
lhand -21.7723 -12.8047
lfingers 7.12502
lthumb 4.62866 17.1247
rfemur -22.0292 6.74299 17.4443
rtibia 7.59712
rfoot -19.6023 -1.57109
rtoes -23.3269
lfemur -21.0797 -5.56717 -25.9392
ltibia 7.05895
lfoot -6.27412 -4.68404
ltoes 9.0149
509
root 3.16592 18.7666 16.0118 -153.437 -4.79934 177.341
lowerback -29.5675 -2.6085 -7.86956
upperback -1.22634 -1.36753 -0.472522
thorax 14.3263 -1.3791 3.14911
lowerneck -2.84111 -4.48257 -1.89841
upperneck 0.701829 -6.18265 7.23114
head 1.01856 -3.07912 2.49489
rclavicle 3.03147e-015 1.86858e-014
rhumerus -35.9529 -17.3016 -79.1532
rradius 35.0548
rwrist -2.00484
rhand -7.6595 -51.2276
rfingers 7.12502
rthumb 18.2364 -80.3927
lclavicle 3.03147e-015 1.86858e-014
lhumerus -27.3578 2.93248 82.5289
lradius 25.6843
lwrist -1.57164
lhand -22.2378 -13.7169
lfingers 7.12502
lthumb 4.17917 16.2219
rfemur -22.1383 6.91344 17.5319
rtibia 7.62087
rfoot -19.5132 -1.58503
rtoes -23.3162
lfemur -21.1533 -5.48002 -25.7724
ltibia 7.03291
lfoot -6.2771 -4.69981
ltoes 9.78607
510
root 3.18127 18.7638 16.0112 -153.47 -4.72364 177.432
lowerback -29.7454 -2.57834 -7.9779
upperback -1.15186 -1.26781 -0.457637
thorax 14.4838 -1.34658 3.25813
lowerneck -2.97556 -4.54837 -1.89367
upperneck 0.614596 -6.26672 7.23377
head 1.01827 -3.12073 2.49038
rclavicle 5.86415e-015 -2.38542e-015
rhumerus -35.939 -17.6343 -79.1054
rradius 34.8067
rwrist -1.73001
rhand -7.78087 -50.9428
rfingers 7.12502
rthumb 18.1197 -80.1188
lclavicle 5.86415e-015 -2.38542e-015
lhumerus -27.3734 2.91647 82.4537
lradius 25.4335
lwrist -1.86259
lhand -22.5865 -13.8605
lfingers 7.12502
lthumb 3.84242 16.0846
rfemur -22.1634 7.49875 17.5347
rtibia 7.60893
rfoot -19.4076 -2.02927
rtoes -23.2791
lfemur -21.1724 -5.41886 -25.5595
ltibia 7.04832
lfoot -6.39553 -4.60128
ltoes 8.53799
